<?xml version="1.0" encoding="UTF-8"?>
<svg id="Layer_3" data-name="Layer 3" xmlns="http://www.w3.org/2000/svg" viewBox="0 0 1080 1080">
  <defs>
    <style>
      .cls-1 {
        letter-spacing: -.02em;
      }

      .cls-2 {
        fill: #5e4530;
        font-family: TheSeasons-Regular, 'The Seasons';
        font-size: 139.79px;
      }

      .cls-3 {
        letter-spacing: -.06em;
      }

      .cls-4 {
        fill: none;
        stroke: #5e4530;
        stroke-miterlimit: 10;
        stroke-width: 2.54px;
      }

      .cls-5 {
        letter-spacing: 0em;
      }
    </style>
  </defs>
  <g>
    <path class="cls-4" d="M477.31,638.99c0-48.31,19.79-101.99,53.31-101.5,41.93.62,60.44,39.13,92.92,58.01,4.12,2.4,8.57,4.41,13.31,4.96,19.56,2.25,21.47-21.24,26.09-34.7,8.38-24.41,29.44-39.35,52.96-47.58,8.87-3.1,21.5-5.2,22.97-16.79.55-4.31-1.25-8.53-2.95-12.54-4.49-10.57-8.14-21.31-7.01-32.93.95-9.84,3.9-19.21,7.83-28.25,8.1-18.65,19.74-36.01,23.05-56.42,4.68-28.82,1.05-47.97,0-54.04"/>
    <path class="cls-4" d="M771.25,296.33c-25.38,51.17-86.38,85.56-178.9,100.3,23.22.37,86.38-2.46,124.45-24.97-25.38,53.63-91.77,88.64-128.06,77.21-35.89-11.3-28.68-40.32-81.95-40.32-29.48,0-44.05,24.92-50.06,35.91-21.07,38.55-11.64,92.18-13.8,141.1"/>
    <path class="cls-4" d="M635.13,304.93c-63.86-6.85-90.38,50.56-73.08,71.23,22.11,26.41,82.85-12.9,73.08-71.23Z"/>
    <path class="cls-4" d="M521.53,304.36c-79.83,28.81-53.27,103.33-20.26,103.73,37.46.46,75.23-55.27,20.26-103.73Z"/>
    <path class="cls-4" d="M615.05,449.21c-12.04-71.53-79.81-70.04-92.76-39.67-15.06,35.31,20.77,92.19,92.76,39.67Z"/>
    <path class="cls-4" d="M521.59,498.49c4.64-63.86-55.44-66-65.37-47.9-7.75,14.14,12.64,59.75,65.37,47.9Z"/>
    <path class="cls-4" d="M425.89,365.03c-31.32,55.87,12.88,89.09,29.65,77.04,22.55-16.2,11.5-51.82-29.65-77.04Z"/>
    <path class="cls-4" d="M701.21,278.67c-56.46-.49-95.5,58.04-112.75,78.07-21.77,25.27-72.91,50.73-81.67,51.81"/>
    <path class="cls-4" d="M521.53,304.36c-33.28,40.09,27.65,60.13-20.26,103.73"/>
    <path class="cls-4" d="M521.59,498.49c-30.77-8.11-29.85-44.03-65.37-47.9"/>
    <path class="cls-4" d="M425.89,365.03c25.94,31.4-2.01,55.65,29.65,77.04"/>
    <path class="cls-4" d="M331.78,353.44c83.18,48.82,111.87,140.02,111.02,183.01"/>
    <path class="cls-4" d="M370.16,459.06c7.86-4.62,33.16-2.61,47.48,9.19,12.86,10.6,19.76,19.36,22.69,41.33-3.85-9.15-7.06-11.61-11.22-14.6-7.68-5.53-23.74-3.8-31.63-11.81-10.13-10.3-15.04-19.2-27.33-24.11Z"/>
    <path class="cls-4" d="M308.75,426.81c5.22-10.43,26.12-18.67,44.68-18.51,29.01.25,50.2,16.23,61.53,32.47-5.14-6.55-34.75-7.9-39.89-8.11-9.45-.4-17.81-.68-28.55-3.99-14.74-4.55-24.81-4.53-37.77-1.85Z"/>
    <path class="cls-4" d="M379.38,289.27c-10.42,41.33-10.42,84.85,18.58,123.37,13.74-55.01,7.27-95.43-18.58-123.37Z"/>
    <path class="cls-4" d="M308.75,426.81c26.1-18.26,73.69-10.43,99.17,10.16"/>
    <path class="cls-4" d="M370.16,459.06c38.32,3.51,53.06,29.79,65.4,41.37"/>
    <path class="cls-4" d="M379.38,289.27c0,42.27,12.37,107.36,18.58,123.37"/>
  </g>
  <text class="cls-2" transform="translate(64.79 853.43)"><tspan class="cls-3" x="0" y="0">P</tspan><tspan x="68.78" y="0">auline </tspan><tspan class="cls-1" x="472.62" y="0">R</tspan><tspan x="555.24" y="0">ouss</tspan><tspan class="cls-5" x="842.92" y="0">e</tspan><tspan x="917.29" y="0">l</tspan></text>
</svg>