<svg width="302" height="302" viewBox="0 0 302 302" fill="none" xmlns="http://www.w3.org/2000/svg">
<path d="M114.942 265.816C114.942 238.029 126.325 207.147 145.606 207.435C169.727 207.793 180.372 229.939 199.052 240.8C201.423 242.179 203.981 243.339 206.705 243.653C217.955 244.947 219.051 231.438 221.71 223.693C226.531 209.652 238.644 201.057 252.176 196.325C257.279 194.541 264.541 193.336 265.388 186.67C265.704 184.189 264.669 181.759 263.694 179.458C261.113 173.376 259.013 167.202 259.661 160.513C260.209 154.851 261.904 149.462 264.163 144.264C268.819 133.534 275.516 123.552 277.423 111.81C280.116 95.2363 278.027 84.2189 277.423 80.7263" stroke="white" stroke-width="2" stroke-miterlimit="10"/>
<path d="M284.017 68.7163C269.418 98.1529 234.33 117.931 181.111 126.409C194.468 126.625 230.798 124.997 252.696 112.045C238.096 142.894 199.91 163.03 179.033 156.458C158.388 149.957 162.535 133.266 131.896 133.266C114.942 133.266 106.556 147.6 103.099 153.922C90.9803 176.094 96.4023 206.943 95.1608 235.082" stroke="white" stroke-width="2" stroke-miterlimit="10"/>
<path d="M205.721 73.6628C168.986 69.7228 153.732 102.744 163.687 114.637C176.402 129.826 211.341 107.218 205.721 73.6628Z" stroke="white" stroke-width="2" stroke-miterlimit="10"/>
<path d="M140.374 73.3384C94.4561 89.912 109.729 132.771 128.719 133.003C150.265 133.266 171.992 101.212 140.374 73.3384Z" stroke="white" stroke-width="2" stroke-miterlimit="10"/>
<path d="M194.169 156.657C187.243 115.509 148.262 116.371 140.816 133.836C132.156 154.146 152.764 186.863 194.169 156.657Z" stroke="white" stroke-width="2" stroke-miterlimit="10"/>
<path d="M140.413 185C143.081 148.265 108.524 147.035 102.814 157.448C98.3541 165.58 110.087 191.815 140.413 185Z" stroke="white" stroke-width="2" stroke-miterlimit="10"/>
<path d="M85.3653 108.233C67.3516 140.371 92.7727 159.478 102.417 152.549C115.389 143.232 109.03 122.743 85.3653 108.233Z" stroke="white" stroke-width="2" stroke-miterlimit="10"/>
<path d="M243.728 58.5572C211.255 58.2748 188.798 91.945 178.876 103.466C166.357 118.004 136.935 132.645 131.898 133.269" stroke="white" stroke-width="2" stroke-miterlimit="10"/>
<path d="M140.374 73.3384C121.231 96.3994 156.277 107.926 128.719 133.003" stroke="white" stroke-width="2" stroke-miterlimit="10"/>
<path d="M140.413 185C122.713 180.336 123.244 159.674 102.814 157.448" stroke="white" stroke-width="2" stroke-miterlimit="10"/>
<path d="M85.3653 108.233C100.284 126.295 84.2133 140.245 102.417 152.549" stroke="white" stroke-width="2" stroke-miterlimit="10"/>
<path d="M31.229 101.567C79.0737 129.648 95.5746 182.106 95.0853 206.837" stroke="white" stroke-width="2" stroke-miterlimit="10"/>
<path d="M53.3058 162.322C57.8274 159.669 72.3793 160.821 80.6172 167.61C88.0106 173.706 91.9842 178.748 93.6675 191.381C91.4557 186.119 89.6073 184.707 87.2165 182.984C82.8011 179.805 73.5622 180.8 69.0266 176.192C63.1991 170.269 60.372 165.146 53.3086 162.322H53.3058Z" stroke="white" stroke-width="2" stroke-miterlimit="10"/>
<path d="M17.983 143.772C20.9862 137.774 33.0075 133.031 43.6837 133.123C60.3692 133.269 72.5555 142.46 79.0737 151.8C76.1152 148.036 59.0829 147.256 56.1301 147.133C50.6941 146.904 45.8844 146.744 39.7046 144.837C31.2262 142.223 25.4323 142.234 17.9802 143.772H17.983Z" stroke="white" stroke-width="2" stroke-miterlimit="10"/>
<path d="M58.6132 64.656C52.6207 88.4273 52.6207 113.463 69.3006 135.62C77.203 103.98 73.4839 80.7263 58.6132 64.656Z" stroke="white" stroke-width="2" stroke-miterlimit="10"/>
<path d="M17.983 143.772C32.9963 133.269 60.3692 137.774 75.0246 149.616" stroke="white" stroke-width="2" stroke-miterlimit="10"/>
<path d="M53.3058 162.322C75.349 164.338 83.8274 179.458 90.9244 186.119" stroke="white" stroke-width="2" stroke-miterlimit="10"/>
<path d="M58.6132 64.656C58.6132 88.967 65.7269 126.409 69.3006 135.62" stroke="white" stroke-width="2" stroke-miterlimit="10"/>
</svg>
