<?xml version="1.0" encoding="UTF-8"?>
<svg id="Layer_3" data-name="Layer 3" xmlns="http://www.w3.org/2000/svg" viewBox="0 0 1080 1080">
  <defs>
    <style>
      .cls-1 {
        fill: none;
        stroke: #618462;
        stroke-miterlimit: 10;
        stroke-width: 5.23px;
      }
    </style>
  </defs>
  <path class="cls-1" d="M411.05,950.6c0-99.37,40.71-209.81,109.66-208.78,86.26,1.28,124.33,80.48,191.13,119.32,8.48,4.93,17.63,9.08,27.37,10.2,40.23,4.63,44.15-43.68,53.66-71.38,17.24-50.21,60.56-80.95,108.95-97.87,18.25-6.38,44.22-10.69,47.25-34.53,1.13-8.87-2.57-17.56-6.06-25.79-9.23-21.75-16.74-43.83-14.42-67.75,1.96-20.25,8.02-39.52,16.1-58.11,16.65-38.37,40.6-74.07,47.42-116.06,9.63-59.27,2.16-98.67,0-111.16"/>
  <path class="cls-1" d="M1015.69,245.74c-52.21,105.27-177.69,176-368.01,206.32,47.77.77,177.69-5.05,256-51.37-52.21,110.32-188.77,182.33-263.43,158.83-73.83-23.25-59-82.94-168.57-82.94-60.63,0-90.62,51.26-102.98,73.87-43.34,79.29-23.95,189.61-28.39,290.24"/>
  <path class="cls-1" d="M735.69,263.43c-131.37-14.09-185.92,104-150.32,146.53,45.47,54.32,170.42-26.53,150.32-146.53Z"/>
  <path class="cls-1" d="M502,262.27c-164.21,59.27-109.59,212.54-41.68,213.37,77.05.94,154.75-113.69,41.68-213.37Z"/>
  <path class="cls-1" d="M694.38,560.23c-24.77-147.15-164.17-144.07-190.8-81.61-30.97,72.63,42.73,189.63,190.8,81.61Z"/>
  <path class="cls-1" d="M502.14,661.59c9.54-131.37-114.04-135.77-134.46-98.53-15.95,29.08,26.01,122.9,134.46,98.53Z"/>
  <path class="cls-1" d="M305.28,387.06c-64.42,114.93,26.49,183.26,60.98,158.48,46.39-33.32,23.65-106.59-60.98-158.48Z"/>
  <path class="cls-1" d="M871.61,209.41c-116.13-1.01-196.44,119.4-231.92,160.6-44.77,51.99-149.99,104.35-168,106.58"/>
  <path class="cls-1" d="M502,262.27c-68.46,82.47,56.87,123.69-41.68,213.37"/>
  <path class="cls-1" d="M502.14,661.59c-63.3-16.68-61.4-90.57-134.46-98.53"/>
  <path class="cls-1" d="M305.28,387.06c53.35,64.59-4.12,114.48,60.98,158.48"/>
  <path class="cls-1" d="M111.68,363.22c171.1,100.42,230.11,288.02,228.36,376.46"/>
  <path class="cls-1" d="M190.63,580.49c16.17-9.49,68.21-5.37,97.67,18.91,26.44,21.8,40.65,39.83,46.67,85.01-7.91-18.82-14.52-23.87-23.07-30.03-15.79-11.37-48.83-7.81-65.05-24.29-20.84-21.18-30.95-39.5-56.21-49.6Z"/>
  <path class="cls-1" d="M64.31,514.15c10.74-21.45,53.73-38.41,91.91-38.08,59.67.52,103.25,33.39,126.56,66.79-10.58-13.46-71.49-16.25-82.05-16.69-19.44-.82-36.64-1.39-58.74-8.21-30.32-9.35-51.04-9.31-77.69-3.81Z"/>
  <path class="cls-1" d="M209.61,231.22c-21.43,85.01-21.43,174.54,38.22,253.78,28.26-113.15,14.96-196.31-38.22-253.78Z"/>
  <path class="cls-1" d="M64.31,514.15c53.69-37.56,151.58-21.45,203.99,20.9"/>
  <path class="cls-1" d="M190.63,580.49c78.83,7.21,109.15,61.28,134.53,85.1"/>
  <path class="cls-1" d="M209.61,231.22c0,86.94,25.44,220.84,38.22,253.78"/>
</svg>